<svg xmlns="http://www.w3.org/2000/svg" x="0px" y="0px"
width="100" height="100"
viewBox="0 0 172 172"
style=" fill:#000000;"><g fill="none" fill-rule="nonzero" stroke="none" stroke-width="1" stroke-linecap="butt" stroke-linejoin="miter" stroke-miterlimit="10" stroke-dasharray="" stroke-dashoffset="0" font-family="none" font-weight="none" font-size="none" text-anchor="none" style="mix-blend-mode: normal"><path d="M0,172v-172h172v172z" fill="none"></path><path d="M86,174.58c-48.92138,0 -88.58,-39.65862 -88.58,-88.58v0c0,-48.92138 39.65862,-88.58 88.58,-88.58h0c48.92138,0 88.58,39.65862 88.58,88.58v0c0,48.92138 -39.65862,88.58 -88.58,88.58z" fill="#cccccc"></path><g><path d="M182.03333,86c0,53.02961 -43.00373,96.03333 -96.03333,96.03333c-53.02961,0 -96.03333,-43.00373 -96.03333,-96.03333c0,-53.02961 43.00373,-96.03333 96.03333,-96.03333c53.02961,0 96.03333,43.00373 96.03333,96.03333z" fill="#64b5f6"></path><path d="M119.61167,90.80167c0,-3.78851 -2.77536,-4.80167 -7.2025,-4.80167h2.40083c-4.42714,0 -9.60333,1.01315 -9.60333,4.80167v60.35695c0,3.78851 3.58204,6.86638 8.00918,6.86638h3.20751c4.40793,0 7.98997,-3.07787 7.98997,-6.86638zM73.18915,74.69208h-12.81085l-3.18831,75.45339c0,3.78851 2.8714,6.86638 6.39582,6.86638h6.39582c3.54363,0 6.41503,-3.07787 6.41503,-6.86638z" fill="#0d47a1"></path><path d="M119.61167,90.80167h-14.405v-76.82667c7.07285,0 32.05593,13.35343 14.405,76.82667zM76.39667,13.975v43.215h-4.80167v-43.215h-9.60333v43.215h-4.80167v-43.215h-6.39582l-3.20751,48.01667l12.81085,12.70041h12.81085l12.79164,-12.70041l-3.18831,-48.01667z" fill="#e0f7fa"></path></g></g></svg>